<svg width="1488" height="342" viewBox="0 0 1488 342" fill="none" xmlns="http://www.w3.org/2000/svg">
<g clip-path="url(#clip0_13_260)">
<path d="M32.5 271.2H13V248.1H32.5V228.6H55.6V248.1H111.4V211.8H91.9V192H72.1V172.2H52.3V152.4H32.5V132.6H13V70.2H32.5V50.4H52.3V30.9H114.7V50.4H134.5V73.5H114.7V93H91.9V73.5H55.6V109.8H75.4V129.6H95.2V149.4H114.7V169.2H134.5V189H154.3V251.4H134.5V271.2H95.2V290.7H32.5V271.2ZM199.956 271.2H180.156V231.6H160.656V70.2H180.156V50.4H219.756V30.9H282.156V50.4H301.956V93H282.156V112.8H259.356V73.5H203.256V228.3H223.056V248.1H301.956V271.2H262.356V290.7H199.956V271.2ZM347.613 271.2H327.813V231.6H308.313V109.8H327.813V90.3H350.913V228.3H370.713V248.1H406.713V93H387.213V73.5H328.113V50.4H347.613V30.9H410.013V50.4H429.813V90H449.613V251.4H429.813V271.2H390.513V290.7H347.613V271.2ZM475.469 73.5H455.969V50.4H475.469V30.9H557.669V50.4H577.469V90H597.269V152.4H577.769V169.2H597.269V271.2H577.469V290.7H554.669V172.2H535.169V149.4H554.369V73.5H518.369V271.2H498.569V290.7H475.469V73.5ZM623.125 73.5H603.625V50.4H623.125V30.9H705.325V50.4H725.125V90H744.925V172.2H725.125V191.7H682.825V169.2H702.025V93H682.525V73.5H666.025V271.2H646.225V290.7H623.125V73.5ZM770.781 73.8H751.281V50.7H790.581V31.2H813.381V271.2H793.881V290.7H770.781V73.8ZM858.843 271.2H839.043V231.6H819.543V109.8H839.043V90.3H862.143V228.3H881.943V248.1H917.943V93H898.443V73.5H839.343V50.4H858.843V30.9H921.243V50.4H941.043V90H960.843V251.4H941.043V271.2H901.743V290.7H858.843V271.2ZM986.699 73.5H967.199V30.9H1029.6V70.2H1049.4V109.5H1065.9V50.4H1085.7V30.9H1108.5V290.7H1085.7V251.4H1065.9V211.8H1046.1V172.5H1029.6V271.2H1009.8V290.7H986.699V73.5ZM1284.36 271.5H1264.86V50.7H1284.36V31.2H1307.46V248.4H1343.76V50.7H1363.56V31.2H1386.36V248.4H1406.16V271.5H1366.56V291H1343.76V271.5H1327.26V291H1284.36V271.5ZM1432.01 73.8H1412.51V50.7H1451.81V31.2H1474.61V271.2H1455.11V290.7H1432.01V73.8Z" fill="black"/>
</g>
<defs>
<clipPath id="clip0_13_260">
<rect width="1488" height="342" fill="white"/>
</clipPath>
</defs>
</svg>
