<svg width="32" height="32" viewBox="0 0 32 32" xmlns="http://www.w3.org/2000/svg" style="image-rendering: pixelated;">
  <!-- White background for contrast -->
  <rect width="32" height="32" fill="white"/>
  
  <!-- Updated 8-bit Scorpion based on scorpion-2 design -->
  <g fill="black">
    <!-- Main body/thorax -->
    <rect x="12" y="14" width="8" height="6" />
    <rect x="14" y="12" width="4" height="2" />
    
    <!-- Left claw -->
    <rect x="4" y="16" width="8" height="4" />
    <rect x="2" y="14" width="4" height="2" />
    <rect x="2" y="20" width="4" height="2" />
    <rect x="6" y="12" width="2" height="2" />
    <rect x="6" y="22" width="2" height="2" />
    
    <!-- Right claw -->
    <rect x="20" y="16" width="8" height="4" />
    <rect x="26" y="14" width="4" height="2" />
    <rect x="26" y="20" width="4" height="2" />
    <rect x="24" y="12" width="2" height="2" />
    <rect x="24" y="22" width="2" height="2" />
    
    <!-- Abdomen segments -->
    <rect x="14" y="20" width="4" height="2" />
    <rect x="15" y="22" width="2" height="2" />
    
    <!-- Tail curved upward -->
    <rect x="16" y="24" width="2" height="2" />
    <rect x="18" y="22" width="2" height="2" />
    <rect x="20" y="20" width="2" height="2" />
    <rect x="22" y="18" width="2" height="2" />
    <rect x="24" y="16" width="2" height="2" />
    <rect x="26" y="14" width="2" height="2" />
    
    <!-- Stinger -->
    <rect x="28" y="12" width="2" height="2" />
  </g>
</svg>