<svg xmlns="http://www.w3.org/2000/svg" viewBox="0 0 16 16" shape-rendering="crispEdges">
  <!-- Scorpion body (dark theme compatible) -->
  <defs>
    <linearGradient id="scorpGrad" gradientTransform="rotate(90)">
      <stop offset="0%" stopColor="#6366f1" />
      <stop offset="100%" stopColor="#8b5cf6" />
    </linearGradient>
  </defs>
  
  <!-- Draw pixels via rects (8-bit scorpion silhouette) -->
  <!-- head & claws -->
  <rect x="6" y="1" width="1" height="1" fill="url(#scorpGrad)" />
  <rect x="7" y="1" width="1" height="1" fill="url(#scorpGrad)" />
  <rect x="8" y="1" width="1" height="1" fill="url(#scorpGrad)" />
  <rect x="5" y="2" width="1" height="1" fill="url(#scorpGrad)" />
  <rect x="9" y="2" width="1" height="1" fill="url(#scorpGrad)" />
  <rect x="4" y="3" width="1" height="1" fill="url(#scorpGrad)" />
  <rect x="6" y="3" width="1" height="1" fill="url(#scorpGrad)" />
  <rect x="7" y="3" width="1" height="1" fill="url(#scorpGrad)" />
  <rect x="8" y="3" width="1" height="1" fill="url(#scorpGrad)" />
  <rect x="10" y="3" width="1" height="1" fill="url(#scorpGrad)" />
  <rect x="3" y="4" width="1" height="1" fill="url(#scorpGrad)" />
  <rect x="11" y="4" width="1" height="1" fill="url(#scorpGrad)" />
  
  <!-- torso -->
  <rect x="6" y="4" width="1" height="1" fill="url(#scorpGrad)" />
  <rect x="7" y="4" width="1" height="1" fill="url(#scorpGrad)" />
  <rect x="8" y="4" width="1" height="1" fill="url(#scorpGrad)" />
  <rect x="6" y="5" width="1" height="1" fill="url(#scorpGrad)" />
  <rect x="7" y="5" width="1" height="1" fill="url(#scorpGrad)" />
  <rect x="8" y="5" width="1" height="1" fill="url(#scorpGrad)" />
  <rect x="6" y="6" width="1" height="1" fill="url(#scorpGrad)" />
  <rect x="7" y="6" width="1" height="1" fill="url(#scorpGrad)" />
  <rect x="8" y="6" width="1" height="1" fill="url(#scorpGrad)" />
  
  <!-- legs -->
  <rect x="4" y="6" width="1" height="1" fill="url(#scorpGrad)" />
  <rect x="10" y="6" width="1" height="1" fill="url(#scorpGrad)" />
  <rect x="3" y="7" width="1" height="1" fill="url(#scorpGrad)" />
  <rect x="11" y="7" width="1" height="1" fill="url(#scorpGrad)" />
  
  <!-- tail base -->
  <rect x="7" y="7" width="1" height="1" fill="url(#scorpGrad)" />
  <rect x="7" y="8" width="1" height="1" fill="url(#scorpGrad)" />
  <rect x="7" y="9" width="1" height="1" fill="url(#scorpGrad)" />
  <rect x="8" y="10" width="1" height="1" fill="url(#scorpGrad)" />
  <rect x="7" y="10" width="1" height="1" fill="url(#scorpGrad)" />
  <rect x="9" y="11" width="1" height="1" fill="url(#scorpGrad)" />
  <rect x="10" y="12" width="1" height="1" fill="url(#scorpGrad)" />
  <rect x="11" y="13" width="1" height="1" fill="url(#scorpGrad)" />
  
  <!-- stinger -->
  <rect x="12" y="12" width="1" height="1" fill="url(#scorpGrad)" />
  <rect x="12" y="13" width="1" height="1" fill="url(#scorpGrad)" />
  
  <!-- highlights (fire-yellow) -->
  <rect x="6" y="2" width="1" height="1" fill="#fbbf24" />
  <rect x="8" y="2" width="1" height="1" fill="#fbbf24" />
  <rect x="6" y="5" width="1" height="1" fill="#fbbf24" />
  <rect x="8" y="5" width="1" height="1" fill="#fbbf24" />
  <rect x="10" y="12" width="1" height="1" fill="#fbbf24" />
</svg>
